<svg xmlns="http://www.w3.org/2000/svg" width="1440" height="900"><path d="M512,333L770,219L669,68Z" fill="#9bd587" stroke="#9bd587" stroke-width="1.51"/><path d="M770,219L886,-46L669,68Z" fill="#9dd587" stroke="#9dd587" stroke-width="1.51"/><path d="M517,-406L326,-149L669,68Z" fill="#c6e79d" stroke="#c6e79d" stroke-width="1.51"/><path d="M669,68L326,-149L512,333Z" fill="#b4e091" stroke="#b4e091" stroke-width="1.51"/><path d="M512,333L920,575L770,219Z" fill="#80ca7c" stroke="#80ca7c" stroke-width="1.51"/><path d="M770,219L1110,169L886,-46Z" fill="#8ecd7f" stroke="#8ecd7f" stroke-width="1.51"/><path d="M512,333L446,739L920,575Z" fill="#75c476" stroke="#75c476" stroke-width="1.51"/><path d="M326,-149L162,398L512,333Z" fill="#b6e192" stroke="#b6e192" stroke-width="1.51"/><path d="M920,575L1110,169L770,219Z" fill="#76c375" stroke="#76c375" stroke-width="1.51"/><path d="M162,398L446,739L512,333Z" fill="#92d182" stroke="#92d182" stroke-width="1.51"/><path d="M886,-46L517,-406L669,68Z" fill="#b4e095" stroke="#b4e095" stroke-width="1.51"/><path d="M1139,-229L950,-265L886,-46Z" fill="#a0d489" stroke="#a0d489" stroke-width="1.51"/><path d="M162,398L157,707L446,739Z" fill="#8ecd7f" stroke="#8ecd7f" stroke-width="1.51"/><path d="M326,-149L37,356L162,398Z" fill="#c1e697" stroke="#c1e697" stroke-width="1.51"/><path d="M950,-265L517,-406L886,-46Z" fill="#b4de96" stroke="#b4de96" stroke-width="1.51"/><path d="M326,-149L-195,4L37,356Z" fill="#d5eea1" stroke="#d5eea1" stroke-width="1.51"/><path d="M517,-406L196,-280L326,-149Z" fill="#d8efaa" stroke="#d8efaa" stroke-width="1.51"/><path d="M37,356L157,707L162,398Z" fill="#a5d98b" stroke="#a5d98b" stroke-width="1.51"/><path d="M1110,169L1266,24L886,-46Z" fill="#8ac77a" stroke="#8ac77a" stroke-width="1.51"/><path d="M1424,260L1266,24L1110,169Z" fill="#76b66d" stroke="#76b66d" stroke-width="1.51"/><path d="M950,-265L1789,-451L517,-406Z" fill="#a1d194" stroke="#a1d194" stroke-width="1.51"/><path d="M1266,24L1139,-229L886,-46Z" fill="#94cb7f" stroke="#94cb7f" stroke-width="1.51"/><path d="M920,575L1159,690L1110,169Z" fill="#59b467" stroke="#59b467" stroke-width="1.51"/><path d="M446,739L961,828L920,575Z" fill="#57b266" stroke="#57b266" stroke-width="1.51"/><path d="M626,1001L961,828L446,739Z" fill="#57aa61" stroke="#57aa61" stroke-width="1.51"/><path d="M961,828L1159,690L920,575Z" fill="#41a95c" stroke="#41a95c" stroke-width="1.51"/><path d="M157,707L203,814L446,739Z" fill="#82c275" stroke="#82c275" stroke-width="1.51"/><path d="M203,814L626,1001L446,739Z" fill="#6fb46a" stroke="#6fb46a" stroke-width="1.51"/><path d="M961,828L1071,882L1159,690Z" fill="#379e54" stroke="#379e54" stroke-width="1.51"/><path d="M817,1182L1071,882L961,828Z" fill="#379652" stroke="#379652" stroke-width="1.51"/><path d="M1266,24L1327,-245L1139,-229Z" fill="#91c37c" stroke="#91c37c" stroke-width="1.51"/><path d="M1159,690L1424,260L1110,169Z" fill="#5faf65" stroke="#5faf65" stroke-width="1.51"/><path d="M1457,132L1424,260L1692,274Z" fill="#65a663" stroke="#65a663" stroke-width="1.51"/><path d="M-186,-39L-195,4L326,-149Z" fill="#e4f4ab" stroke="#e4f4ab" stroke-width="1.51"/><path d="M517,-406L-43,-293L196,-280Z" fill="#e2f3b3" stroke="#e2f3b3" stroke-width="1.51"/><path d="M-186,-39L326,-149L196,-280Z" fill="#e3f4aa" stroke="#e3f4aa" stroke-width="1.51"/><path d="M37,356L-127,666L157,707Z" fill="#a1d689" stroke="#a1d689" stroke-width="1.51"/><path d="M157,707L-69,992L203,814Z" fill="#88c076" stroke="#88c076" stroke-width="1.51"/><path d="M-43,-293L-186,-39L196,-280Z" fill="#edf8b1" stroke="#edf8b1" stroke-width="1.51"/><path d="M1424,260L1457,132L1266,24Z" fill="#73b16a" stroke="#73b16a" stroke-width="1.51"/><path d="M1139,-229L1327,-245L950,-265Z" fill="#9ccc86" stroke="#9ccc86" stroke-width="1.51"/><path d="M1457,132L1327,-245L1266,24Z" fill="#84b972" stroke="#84b972" stroke-width="1.51"/><path d="M-395,471L-127,666L37,356Z" fill="#b2de94" stroke="#b2de94" stroke-width="1.51"/><path d="M452,1223L626,1001L203,814Z" fill="#66a864" stroke="#66a864" stroke-width="1.51"/><path d="M452,1223L817,1182L626,1001Z" fill="#4d995a" stroke="#4d995a" stroke-width="1.51"/><path d="M626,1001L817,1182L961,828Z" fill="#439b57" stroke="#439b57" stroke-width="1.51"/><path d="M321,1296L452,1223L203,814Z" fill="#69a564" stroke="#69a564" stroke-width="1.51"/><path d="M-127,666L-69,992L157,707Z" fill="#91c67d" stroke="#91c67d" stroke-width="1.51"/><path d="M-127,666L-265,785L-69,992Z" fill="#97c780" stroke="#97c780" stroke-width="1.51"/><path d="M-438,419L-395,471L37,356Z" fill="#bee49f" stroke="#bee49f" stroke-width="1.51"/><path d="M-438,419L37,356L-195,4Z" fill="#ceeba3" stroke="#ceeba3" stroke-width="1.51"/><path d="M-395,471L-265,785L-127,666Z" fill="#a6d691" stroke="#a6d691" stroke-width="1.51"/><path d="M-395,471L-438,419L-265,785Z" fill="#b0dc9e" stroke="#b0dc9e" stroke-width="1.51"/><path d="M-345,-362L-438,419L-195,4Z" fill="#e8f6b7" stroke="#e8f6b7" stroke-width="1.51"/><path d="M1457,132L1672,15L1327,-245Z" fill="#7fb26f" stroke="#7fb26f" stroke-width="1.51"/><path d="M1692,274L1672,15L1457,132Z" fill="#6aa565" stroke="#6aa565" stroke-width="1.51"/><path d="M1692,274L1424,260L1624,619Z" fill="#4f9b5b" stroke="#4f9b5b" stroke-width="1.51"/><path d="M1624,619L1580,975L1681,796Z" fill="#1c7f43" stroke="#1c7f43" stroke-width="1.51"/><path d="M1624,619L1424,260L1159,690Z" fill="#459c57" stroke="#459c57" stroke-width="1.51"/><path d="M1387,1087L1159,690L1071,882Z" fill="#2a8d49" stroke="#2a8d49" stroke-width="1.51"/><path d="M-186,-39L-345,-362L-195,4Z" fill="#f2fab8" stroke="#f2fab8" stroke-width="1.51"/><path d="M-43,-293L-345,-362L-186,-39Z" fill="#f7fcba" stroke="#f7fcba" stroke-width="1.51"/><path d="M517,-406L-345,-362L-43,-293Z" fill="#eef9bc" stroke="#eef9bc" stroke-width="1.51"/><path d="M452,1223L321,1296L817,1182Z" fill="#54945a" stroke="#54945a" stroke-width="1.51"/><path d="M17,1163L321,1296L203,814Z" fill="#75ab69" stroke="#75ab69" stroke-width="1.51"/><path d="M-344,1353L17,1163L-69,992Z" fill="#83ac72" stroke="#83ac72" stroke-width="1.51"/><path d="M-69,992L17,1163L203,814Z" fill="#82b571" stroke="#82b571" stroke-width="1.51"/><path d="M1260,1213L1387,1087L1071,882Z" fill="#1e7f42" stroke="#1e7f42" stroke-width="1.51"/><path d="M1260,1213L1071,882L817,1182Z" fill="#26894a" stroke="#26894a" stroke-width="1.51"/><path d="M321,1296L1260,1213L817,1182Z" fill="#3b8a50" stroke="#3b8a50" stroke-width="1.51"/><path d="M1580,975L1159,690L1387,1087Z" fill="#208042" stroke="#208042" stroke-width="1.51"/><path d="M1580,975L1624,619L1159,690Z" fill="#278a48" stroke="#278a48" stroke-width="1.51"/><path d="M1624,619L1809,530L1692,274Z" fill="#408f53" stroke="#408f53" stroke-width="1.51"/><path d="M1712,1055L1580,975L1387,1087Z" fill="#0d703b" stroke="#0d703b" stroke-width="1.51"/><path d="M1692,274L1809,530L1672,15Z" fill="#59985c" stroke="#59985c" stroke-width="1.51"/><path d="M1681,796L1809,530L1624,619Z" fill="#298549" stroke="#298549" stroke-width="1.51"/><path d="M1327,-245L1789,-451L950,-265Z" fill="#93be84" stroke="#93be84" stroke-width="1.51"/><path d="M1672,15L1789,-451L1327,-245Z" fill="#88b275" stroke="#88b275" stroke-width="1.51"/><path d="M1809,530L1789,-451L1672,15Z" fill="#71a066" stroke="#71a066" stroke-width="1.51"/><path d="M1681,796L1712,1055L1809,530Z" fill="#1c7840" stroke="#1c7840" stroke-width="1.51"/><path d="M1580,975L1712,1055L1681,796Z" fill="#11713b" stroke="#11713b" stroke-width="1.51"/><path d="M1260,1213L1712,1055L1387,1087Z" fill="#0e703b" stroke="#0e703b" stroke-width="1.51"/><path d="M-265,785L-344,1353L-69,992Z" fill="#8cb67b" stroke="#8cb67b" stroke-width="1.51"/><path d="M17,1163L-344,1353L321,1296Z" fill="#78a069" stroke="#78a069" stroke-width="1.51"/><path d="M-438,419L-344,1353L-265,785Z" fill="#98c58b" stroke="#98c58b" stroke-width="1.51"/></svg>