<svg xmlns="http://www.w3.org/2000/svg" width="1440" height="900"><path d="M735,631L476,719L748,940Z" fill="#fb7133" stroke="#fb7133" stroke-width="1.51"/><path d="M476,719L665,1131L748,940Z" fill="#f4692f" stroke="#f4692f" stroke-width="1.51"/><path d="M476,719L298,1052L665,1131Z" fill="#f46f31" stroke="#f46f31" stroke-width="1.51"/><path d="M476,719L100,587L298,1052Z" fill="#fd853c" stroke="#fd853c" stroke-width="1.51"/><path d="M157,254L100,587L476,719Z" fill="#ffa048" stroke="#ffa048" stroke-width="1.51"/><path d="M735,631L592,132L476,719Z" fill="#fe8f3d" stroke="#fe8f3d" stroke-width="1.51"/><path d="M1295,701L911,272L735,631Z" fill="#fd6f32" stroke="#fd6f32" stroke-width="1.51"/><path d="M298,1052L431,1362L665,1131Z" fill="#e56835" stroke="#e56835" stroke-width="1.51"/><path d="M748,940L1295,701L735,631Z" fill="#fb5b2c" stroke="#fb5b2c" stroke-width="1.51"/><path d="M1314,950L1295,701L748,940Z" fill="#f44125" stroke="#f44125" stroke-width="1.51"/><path d="M1314,950L748,940L1162,1441Z" fill="#e73525" stroke="#e73525" stroke-width="1.51"/><path d="M911,272L592,132L735,631Z" fill="#fe933e" stroke="#fe933e" stroke-width="1.51"/><path d="M431,1362L724,1460L665,1131Z" fill="#d85c34" stroke="#d85c34" stroke-width="1.51"/><path d="M1162,1441L748,940L665,1131Z" fill="#e34c2c" stroke="#e34c2c" stroke-width="1.51"/><path d="M592,132L157,254L476,719Z" fill="#fea345" stroke="#fea345" stroke-width="1.51"/><path d="M592,132L175,11L157,254Z" fill="#feb953" stroke="#feb953" stroke-width="1.51"/><path d="M911,272L641,-7L592,132Z" fill="#fea448" stroke="#fea448" stroke-width="1.51"/><path d="M911,272L1065,-77L641,-7Z" fill="#ff9e49" stroke="#ff9e49" stroke-width="1.51"/><path d="M1295,701L1397,442L911,272Z" fill="#f9682f" stroke="#f9682f" stroke-width="1.51"/><path d="M1498,634L1397,442L1295,701Z" fill="#f24f28" stroke="#f24f28" stroke-width="1.51"/><path d="M298,1052L65,1464L431,1362Z" fill="#dc703d" stroke="#dc703d" stroke-width="1.51"/><path d="M100,587L-179,897L298,1052Z" fill="#fb8e47" stroke="#fb8e47" stroke-width="1.51"/><path d="M-180,673L-179,897L100,587Z" fill="#ff9c54" stroke="#ff9c54" stroke-width="1.51"/><path d="M724,1460L1162,1441L665,1131Z" fill="#d3492e" stroke="#d3492e" stroke-width="1.51"/><path d="M-318,303L-180,673L100,587Z" fill="#ffb05e" stroke="#ffb05e" stroke-width="1.51"/><path d="M1397,442L1104,70L911,272Z" fill="#fd7c37" stroke="#fd7c37" stroke-width="1.51"/><path d="M1599,910L1498,634L1295,701Z" fill="#ed3522" stroke="#ed3522" stroke-width="1.51"/><path d="M1599,910L1295,701L1314,950Z" fill="#eb2e20" stroke="#eb2e20" stroke-width="1.51"/><path d="M-75,1326L65,1464L298,1052Z" fill="#df7b46" stroke="#df7b46" stroke-width="1.51"/><path d="M431,1362L65,1464L724,1460Z" fill="#cb6338" stroke="#cb6338" stroke-width="1.51"/><path d="M-179,897L-75,1326L298,1052Z" fill="#ef8647" stroke="#ef8647" stroke-width="1.51"/><path d="M641,-7L175,11L592,132Z" fill="#ffb754" stroke="#ffb754" stroke-width="1.51"/><path d="M157,254L-318,303L100,587Z" fill="#ffb95c" stroke="#ffb95c" stroke-width="1.51"/><path d="M1784,1207L1599,910L1314,950Z" fill="#da151f" stroke="#da151f" stroke-width="1.51"/><path d="M1475,-4L1065,-77L1104,70Z" fill="#fd8e45" stroke="#fd8e45" stroke-width="1.51"/><path d="M1104,70L1065,-77L911,272Z" fill="#ff9042" stroke="#ff9042" stroke-width="1.51"/><path d="M211,-338L-10,-106L175,11Z" fill="#ffd473" stroke="#ffd473" stroke-width="1.51"/><path d="M1397,442L1456,153L1104,70Z" fill="#f77734" stroke="#f77734" stroke-width="1.51"/><path d="M1946,317L1456,153L1397,442Z" fill="#ea6732" stroke="#ea6732" stroke-width="1.51"/><path d="M1946,317L1397,442L1498,634Z" fill="#e8592e" stroke="#e8592e" stroke-width="1.51"/><path d="M-10,-106L-318,303L157,254Z" fill="#ffc967" stroke="#ffc967" stroke-width="1.51"/><path d="M-180,673L-432,643L-179,897Z" fill="#ffa05d" stroke="#ffa05d" stroke-width="1.51"/><path d="M-318,303L-432,643L-180,673Z" fill="#ffb467" stroke="#ffb467" stroke-width="1.51"/><path d="M-179,897L-497,833L-75,1326Z" fill="#f69055" stroke="#f69055" stroke-width="1.51"/><path d="M175,11L-10,-106L157,254Z" fill="#ffc965" stroke="#ffc965" stroke-width="1.51"/><path d="M556,-330L175,11L641,-7Z" fill="#ffc161" stroke="#ffc161" stroke-width="1.51"/><path d="M1065,-77L556,-330L641,-7Z" fill="#ffb45c" stroke="#ffb45c" stroke-width="1.51"/><path d="M-687,393L-497,833L-432,643Z" fill="#ffb272" stroke="#ffb272" stroke-width="1.51"/><path d="M-432,643L-497,833L-179,897Z" fill="#ffa061" stroke="#ffa061" stroke-width="1.51"/><path d="M1065,-77L947,-594L556,-330Z" fill="#ffb368" stroke="#ffb368" stroke-width="1.51"/><path d="M1456,153L1475,-4L1104,70Z" fill="#f8823d" stroke="#f8823d" stroke-width="1.51"/><path d="M1946,317L1475,-4L1456,153Z" fill="#e97237" stroke="#e97237" stroke-width="1.51"/><path d="M556,-330L211,-338L175,11Z" fill="#ffcd6e" stroke="#ffcd6e" stroke-width="1.51"/><path d="M2073,579L1946,317L1498,634Z" fill="#da4f2f" stroke="#da4f2f" stroke-width="1.51"/><path d="M1784,1207L1833,1020L1599,910Z" fill="#cf0e22" stroke="#cf0e22" stroke-width="1.51"/><path d="M1162,1441L1784,1207L1314,950Z" fill="#d41421" stroke="#d41421" stroke-width="1.51"/><path d="M1162,1441L1815,1364L1784,1207Z" fill="#bf0824" stroke="#bf0824" stroke-width="1.51"/><path d="M1784,1207L1815,1364L1833,1020Z" fill="#c00325" stroke="#c00325" stroke-width="1.51"/><path d="M2073,579L1599,910L1833,1020Z" fill="#d42426" stroke="#d42426" stroke-width="1.51"/><path d="M2073,579L1498,634L1599,910Z" fill="#e03428" stroke="#e03428" stroke-width="1.51"/><path d="M-318,303L-687,393L-432,643Z" fill="#ffc175" stroke="#ffc175" stroke-width="1.51"/><path d="M-566,75L-687,393L-318,303Z" fill="#ffcf7e" stroke="#ffcf7e" stroke-width="1.51"/><path d="M-566,75L-318,303L-10,-106Z" fill="#ffd47a" stroke="#ffd47a" stroke-width="1.51"/><path d="M1475,-4L1310,-444L1065,-77Z" fill="#fc9450" stroke="#fc9450" stroke-width="1.51"/><path d="M556,-330L947,-594L211,-338Z" fill="#ffc777" stroke="#ffc777" stroke-width="1.51"/><path d="M1485,-525L1310,-444L1475,-4Z" fill="#f99358" stroke="#f99358" stroke-width="1.51"/><path d="M-276,-469L-566,75L-10,-106Z" fill="#ffe48d" stroke="#ffe48d" stroke-width="1.51"/><path d="M1310,-444L947,-594L1065,-77Z" fill="#ffa364" stroke="#ffa364" stroke-width="1.51"/><path d="M1815,1364L2073,579L1833,1020Z" fill="#c60e22" stroke="#c60e22" stroke-width="1.51"/><path d="M-497,833L-672,1529L-75,1326Z" fill="#e88e62" stroke="#e88e62" stroke-width="1.51"/><path d="M-75,1326L-672,1529L65,1464Z" fill="#ce8058" stroke="#ce8058" stroke-width="1.51"/><path d="M65,1464L-672,1529L724,1460Z" fill="#c6764a" stroke="#c6764a" stroke-width="1.51"/><path d="M724,1460L-672,1529L1162,1441Z" fill="#c56239" stroke="#c56239" stroke-width="1.51"/><path d="M-687,393L-672,1529L-497,833Z" fill="#ff9f6d" stroke="#ff9f6d" stroke-width="1.51"/><path d="M211,-338L-276,-469L-10,-106Z" fill="#ffe188" stroke="#ffe188" stroke-width="1.51"/><path d="M947,-594L-276,-469L211,-338Z" fill="#ffd683" stroke="#ffd683" stroke-width="1.51"/><path d="M2009,-395L1485,-525L1475,-4Z" fill="#ed8d5a" stroke="#ed8d5a" stroke-width="1.51"/><path d="M1310,-444L1485,-525L947,-594Z" fill="#ffa26c" stroke="#ffa26c" stroke-width="1.51"/><path d="M2073,579L2109,79L1946,317Z" fill="#c95b35" stroke="#c95b35" stroke-width="1.51"/><path d="M1946,317L2109,79L1475,-4Z" fill="#dc6f3c" stroke="#dc6f3c" stroke-width="1.51"/><path d="M-276,-469L-633,-321L-566,75Z" fill="#ffec9f" stroke="#ffec9f" stroke-width="1.51"/><path d="M-566,75L-633,-321L-687,393Z" fill="#ffdf91" stroke="#ffdf91" stroke-width="1.51"/><path d="M2109,79L2009,-395L1475,-4Z" fill="#dc804d" stroke="#dc804d" stroke-width="1.51"/></svg>